#!OML:ASF F:\VICON\USERDATA\INSTALL\rory3\rory3.ASF
:FULLY-SPECIFIED
:DEGREES
31
root 0.3476572922573976 17.65669801954288 3.0271904685447026 5.910598942228945 -2.315163880866725 -0.909763106521627
lfemur -3.9261605297451823 0.2673139901980658 -22.97357640856387
ltibia 38.639367825872114
lfoot -4.960221827625889 -1.28679657023347
ltoes -30.04320294661462
rfemur -41.617998853553175 -0.09895837500310778 25.22154496855729
rtibia 88.20966974041832
rfoot 7.117286412103453 -2.6176697257658375
rtoes 7.970684923822463
lowerback nan -0.27959474569085485 -1.3294717286610043
upperback -0.2796174793515118 -0.4391545493677025 0.7772160218132341
thorax -9.07976493515147 -0.1697104746891358 2.1034269301470925
lowerneck -20.287274251455155 -3.5309137726240234 -2.5625075390148964
upperneck 9.298448116766789 -4.8407284229372385 5.330364631324915
head 6.785700785355167 -1.9158581337656302 1.5410397034526802
lclavicle -3.306339763651597e-15 -5.46795058579713e-15
lhumerus -34.755488506107646 -10.089994606011784 87.44999930715629
lradius 119.46219603799031
lwrist 34.46232206592062
lhand -25.000089083013076 1.674687160587149
lfingers nan
lthumb 1.4422773422165727 31.61052038519969
rclavicle -3.334238955438104e-15 -5.190775947613518e-15
rhumerus -55.72812615510331 8.832381452011086 -100.656537164288
rradius 104.71891656170439
rwrist -25.859369624968828
rhand -18.128931884686562 nan
rfingers nan
rthumb 8.056069073419751 9.017466778261069
32
root 0.3640214496566503 18.040634692977964 3.1455858869136284 6.231303577036148 -4.592259320855654 -1.0811326472246467
lfemur -0.40631467839427415 1.523874957100499 -22.593255523630297
ltibia 35.62255375829389
lfoot 2.1091397073785907 -5.379272057330125
ltoes -32.69806768840456
rfemur -41.02502863414312 2.089962565274247 25.835383814953857
rtibia 80.3832044204414
rfoot 5.562994337416413 -2.98148506269685
rtoes 5.62816132120187
lowerback nan -0.2583803585275789 -1.4709844286681157
upperback -0.5870387828577408 -0.42659334913454905 1.1507952278114415
thorax -9.194913583642014 -0.13024795874829842 2.697204702464431
lowerneck -19.681392336340473 -3.2494986296341066 -2.704333178099589
upperneck 9.515199378811653 -4.356745021826622 5.236189248648534
head 6.84374618006688 -1.6818113586902783 1.564852164896589
lclavicle -2.9216258081846876e-16 -2.1327149700626464e-15
lhumerus -33.95331595104157 -9.795237862698471 86.7703778168882
lradius 121.63989303570612
lwrist 34.53987147329157
lhand -24.725129384519803 0.8528160064802011
lfingers nan
lthumb 1.6978266631967973 30.668765147463247
rclavicle -5.069872788729314e-16 -1.8504949330596173e-15
rhumerus -57.22700875126058 9.06174389070816 -100.48712258577437
rradius 107.19420049780115
rwrist -26.577821524741854
rhand -17.955508834504503 nan
rfingers nan
rthumb 8.238008076831372 9.578556127059114
33
root 0.4203480869103712 18.34938875431405 4.033399662169355 6.331783553902847 -6.352168609340126 -1.2533857207482444
lfemur 2.4866027570613056 1.7006135291241047 -22.444353810234233
ltibia 32.43392614873431
lfoot 9.505109949523284 -10.029861285399397
ltoes -33.01128842830729
rfemur -40.21726858264302 3.355687707611925 26.29142698940969
rtibia 71.58294194243814
rfoot 4.666672569292458 -3.130620324396819
rtoes 2.4495354181753113
lowerback nan -0.4421308802284619 -1.3586476426246366
upperback -0.9724177798378651 -0.6251540253846692 1.405095415624654
thorax -9.06887246824787 -0.20657026501327858 2.933161203554451
lowerneck -19.296965512759837 -3.063862486270412 -2.8281307862056497
upperneck 10.05933984235864 -4.02007602587977 5.135893330289481
head 6.959118674561587 -1.5438519558263422 1.5902686102420578
lclavicle 1.2802416426249127e-16 -4.730869444290382e-15
lhumerus -33.668056633251595 -9.627823576903621 86.4369220766124
lradius 123.4481344243707
lwrist 34.39521637336989
lhand -24.425597395527586 0.5310452920483297
lfingers nan
lthumb 2.266995842410209 30.769620104069148
rclavicle -5.397065744026208e-16 -4.838475159813331e-15
rhumerus -58.65507401597647 9.233154917160808 -100.35835375061379
rradius 109.24789373985767
rwrist -27.08901619085742
rhand -17.34487555819828 nan
rfingers nan
rthumb 8.748641425963307 9.860472882770322
34
root 0.450994809404773 18.575458063892828 4.937362359266924 6.287831758117662 -7.454558955567377 -0.7235664646133857
lfemur 6.639697301209022 -0.2666917590028056 -24.667168256089088
ltibia 28.21099709377085
lfoot 17.302399386836594 -13.420230708154993
ltoes -32.92616867067137
rfemur -38.969517381426414 3.371107151139225 26.0821092714253
rtibia 62.4191189623377
rfoot 4.477712356826146 -2.689970655142163
rtoes -0.9235498993241427
lowerback nan -0.5643096632950532 -1.8022456566135818
upperback -1.2929838504251798 -0.8620231755552537 1.506654402098394
thorax -9.031475869604 -0.3127200384676744 3.111173301376722
lowerneck -19.100007856002616 -2.861586513487669 -2.757292658900213
upperneck 10.741732631089292 -3.728356226258329 4.809431235808558
head 7.046887112219622 -1.4521134918838794 1.536905058582838
lclavicle 8.788074554337154e-16 -4.4012124066941024e-15
lhumerus -33.75804205772745 -9.544167707473056 86.15196135467319
lradius 124.69614404162465
lwrist 33.984866212205496
lhand -24.267279060329006 0.3286887707266599
lfingers nan
lthumb 2.3306441992554703 30.420939953680026
rclavicle 3.2985645577490857e-16 -4.437877937914466e-15
rhumerus -60.25698092176517 8.995508379146639 -99.92532803930636
rradius 110.90646958742423
rwrist -27.538078697636212
rhand -17.490233163810686 nan
rfingers nan
rthumb 8.639605183162894 10.488117294475026
